<mxfile host="app.diagrams.net" modified="2020-09-04T13:47:48.436Z" agent="5.0 (Windows NT 10.0; Win64; x64) AppleWebKit/537.36 (KHTML, like Gecko) Chrome/84.0.4147.135 Safari/537.36" etag="O0MIpIYd1kScurvcfjxL" version="13.6.5" type="github">
  <diagram id="d6mMUUTLgo8zF5sFDHfQ" name="Page-1">
    <mxGraphModel dx="716" dy="378" grid="1" gridSize="10" guides="1" tooltips="1" connect="1" arrows="1" fold="1" page="1" pageScale="1" pageWidth="1100" pageHeight="850" math="0" shadow="0" extFonts="Old Standard TT^https://fonts.googleapis.com/css?family=Old+Standard+TT">
      <root>
        <mxCell id="0" />
        <mxCell id="1" parent="0" />
        <mxCell id="qdngjhdqyZibX6NcExob-2" value="" style="outlineConnect=0;dashed=0;verticalLabelPosition=bottom;verticalAlign=top;align=center;html=1;shape=mxgraph.aws3.user;fillColor=#D2D3D3;gradientColor=none;shadow=0;" vertex="1" parent="1">
          <mxGeometry x="320" y="175" width="45" height="63" as="geometry" />
        </mxCell>
        <mxCell id="qdngjhdqyZibX6NcExob-7" value="" style="rounded=1;whiteSpace=wrap;html=1;shadow=0;fillColor=none;strokeWidth=2;" vertex="1" parent="1">
          <mxGeometry x="590" y="165" width="200" height="235" as="geometry" />
        </mxCell>
        <mxCell id="qdngjhdqyZibX6NcExob-8" value="" style="rounded=1;whiteSpace=wrap;html=1;shadow=0;fillColor=#dae8fc;strokeWidth=2;dashed=1;strokeColor=#6c8ebf;fillOpacity=100;" vertex="1" parent="1">
          <mxGeometry x="600" y="175" width="180" height="145" as="geometry" />
        </mxCell>
        <mxCell id="qdngjhdqyZibX6NcExob-9" value="" style="rounded=1;whiteSpace=wrap;html=1;shadow=0;strokeWidth=1;fillColor=none;" vertex="1" parent="1">
          <mxGeometry x="620" y="197.5" width="140" height="40" as="geometry" />
        </mxCell>
        <mxCell id="qdngjhdqyZibX6NcExob-11" value="" style="endArrow=classic;html=1;exitX=0.5;exitY=1;exitDx=0;exitDy=0;" edge="1" parent="1" source="qdngjhdqyZibX6NcExob-9" target="qdngjhdqyZibX6NcExob-17">
          <mxGeometry width="50" height="50" relative="1" as="geometry">
            <mxPoint x="420" y="430" as="sourcePoint" />
            <mxPoint x="690" y="280" as="targetPoint" />
          </mxGeometry>
        </mxCell>
        <mxCell id="qdngjhdqyZibX6NcExob-13" value="" style="verticalLabelPosition=bottom;html=1;verticalAlign=top;align=center;strokeColor=none;shape=mxgraph.azure.virtual_machine;rounded=1;shadow=0;fillColor=#125F75;" vertex="1" parent="1">
          <mxGeometry x="870" y="267" width="140" height="115" as="geometry" />
        </mxCell>
        <mxCell id="qdngjhdqyZibX6NcExob-16" value="" style="rounded=1;whiteSpace=wrap;html=1;shadow=0;fillColor=#f8cecc;strokeWidth=2;dashed=1;strokeColor=#b85450;fillOpacity=50;" vertex="1" parent="1">
          <mxGeometry x="600" y="260" width="180" height="130" as="geometry" />
        </mxCell>
        <mxCell id="qdngjhdqyZibX6NcExob-17" value="" style="rounded=1;whiteSpace=wrap;html=1;shadow=0;strokeWidth=1;fillColor=none;" vertex="1" parent="1">
          <mxGeometry x="620" y="271.5" width="140" height="40" as="geometry" />
        </mxCell>
        <mxCell id="qdngjhdqyZibX6NcExob-18" value="" style="rounded=1;whiteSpace=wrap;html=1;shadow=0;strokeWidth=1;fillColor=none;" vertex="1" parent="1">
          <mxGeometry x="620" y="339" width="140" height="40" as="geometry" />
        </mxCell>
        <mxCell id="qdngjhdqyZibX6NcExob-20" value="" style="endArrow=classic;html=1;entryX=0;entryY=0.209;entryDx=0;entryDy=0;entryPerimeter=0;" edge="1" parent="1" source="qdngjhdqyZibX6NcExob-17">
          <mxGeometry width="50" height="50" relative="1" as="geometry">
            <mxPoint x="430" y="409" as="sourcePoint" />
            <mxPoint x="870" y="291.0350000000001" as="targetPoint" />
          </mxGeometry>
        </mxCell>
        <mxCell id="qdngjhdqyZibX6NcExob-21" value="" style="endArrow=classic;html=1;exitX=1;exitY=0.5;exitDx=0;exitDy=0;entryX=-0.001;entryY=0.713;entryDx=0;entryDy=0;entryPerimeter=0;" edge="1" parent="1" source="qdngjhdqyZibX6NcExob-18">
          <mxGeometry width="50" height="50" relative="1" as="geometry">
            <mxPoint x="769.9999999999999" y="311.5" as="sourcePoint" />
            <mxPoint x="869.8599999999999" y="358.995" as="targetPoint" />
          </mxGeometry>
        </mxCell>
        <mxCell id="qdngjhdqyZibX6NcExob-22" value="" style="endArrow=classic;html=1;entryX=0;entryY=0.5;entryDx=0;entryDy=0;exitX=1;exitY=0.5;exitDx=0;exitDy=0;exitPerimeter=0;" edge="1" parent="1" source="qdngjhdqyZibX6NcExob-36" target="qdngjhdqyZibX6NcExob-9">
          <mxGeometry width="50" height="50" relative="1" as="geometry">
            <mxPoint x="518" y="217.5" as="sourcePoint" />
            <mxPoint x="550" y="270" as="targetPoint" />
          </mxGeometry>
        </mxCell>
        <mxCell id="qdngjhdqyZibX6NcExob-23" value="" style="endArrow=classic;html=1;entryX=0;entryY=0.5;entryDx=0;entryDy=0;exitX=1;exitY=0.68;exitDx=0;exitDy=0;exitPerimeter=0;metaEdit=0;sketch=0;shadow=0;labelBorderColor=none;entryPerimeter=0;" edge="1" parent="1" source="qdngjhdqyZibX6NcExob-2" target="qdngjhdqyZibX6NcExob-36">
          <mxGeometry width="50" height="50" relative="1" as="geometry">
            <mxPoint x="370" y="218" as="sourcePoint" />
            <mxPoint x="450" y="217.5" as="targetPoint" />
          </mxGeometry>
        </mxCell>
        <mxCell id="qdngjhdqyZibX6NcExob-24" value="&lt;font face=&quot;Old Standard TT&quot;&gt;push&lt;/font&gt;" style="text;html=1;strokeColor=none;fillColor=none;align=center;verticalAlign=middle;whiteSpace=wrap;rounded=0;shadow=0;fontStyle=1" vertex="1" parent="1">
          <mxGeometry x="390" y="198" width="40" height="20" as="geometry" />
        </mxCell>
        <mxCell id="qdngjhdqyZibX6NcExob-25" value="&lt;div style=&quot;text-align: justify&quot;&gt;&lt;span style=&quot;font-family: &amp;quot;old standard tt&amp;quot;&quot;&gt;&lt;font style=&quot;font-size: 10px&quot;&gt;1&lt;/font&gt;&lt;/span&gt;&lt;/div&gt;" style="ellipse;whiteSpace=wrap;html=1;aspect=fixed;strokeWidth=2;fontFamily=Tahoma;spacingBottom=4;spacingRight=2;rounded=1;shadow=0;align=center;strokeColor=#FFFFFF;fillColor=#000000;fontColor=#FFFFFF;" vertex="1" parent="1">
          <mxGeometry x="380" y="200.5" width="15" height="15" as="geometry" />
        </mxCell>
        <mxCell id="qdngjhdqyZibX6NcExob-27" value="&lt;font face=&quot;Old Standard TT&quot;&gt;clone&lt;/font&gt;" style="text;html=1;strokeColor=none;fillColor=none;align=center;verticalAlign=middle;whiteSpace=wrap;rounded=0;shadow=0;fontStyle=1" vertex="1" parent="1">
          <mxGeometry x="540" y="198" width="40" height="20" as="geometry" />
        </mxCell>
        <mxCell id="qdngjhdqyZibX6NcExob-28" value="&lt;div style=&quot;text-align: justify&quot;&gt;&lt;span style=&quot;font-family: &amp;#34;old standard tt&amp;#34;&quot;&gt;&lt;font style=&quot;font-size: 10px&quot;&gt;2&lt;/font&gt;&lt;/span&gt;&lt;/div&gt;" style="ellipse;whiteSpace=wrap;html=1;aspect=fixed;strokeWidth=2;fontFamily=Tahoma;spacingBottom=4;spacingRight=2;rounded=1;shadow=0;align=center;strokeColor=#FFFFFF;fillColor=#000000;fontColor=#FFFFFF;" vertex="1" parent="1">
          <mxGeometry x="530" y="200.5" width="15" height="15" as="geometry" />
        </mxCell>
        <mxCell id="qdngjhdqyZibX6NcExob-29" value="&lt;font face=&quot;Old Standard TT&quot;&gt;build&lt;/font&gt;" style="text;html=1;strokeColor=none;fillColor=none;align=center;verticalAlign=middle;whiteSpace=wrap;rounded=0;shadow=0;fontStyle=1" vertex="1" parent="1">
          <mxGeometry x="650" y="240" width="40" height="20" as="geometry" />
        </mxCell>
        <mxCell id="qdngjhdqyZibX6NcExob-30" value="&lt;div style=&quot;text-align: justify&quot;&gt;&lt;span style=&quot;font-family: &amp;#34;old standard tt&amp;#34;&quot;&gt;&lt;font style=&quot;font-size: 10px&quot;&gt;3&lt;/font&gt;&lt;/span&gt;&lt;/div&gt;" style="ellipse;whiteSpace=wrap;html=1;aspect=fixed;strokeWidth=2;fontFamily=Tahoma;spacingBottom=4;spacingRight=2;rounded=1;shadow=0;align=center;strokeColor=#FFFFFF;fillColor=#000000;fontColor=#FFFFFF;" vertex="1" parent="1">
          <mxGeometry x="640" y="242.5" width="15" height="15" as="geometry" />
        </mxCell>
        <mxCell id="qdngjhdqyZibX6NcExob-31" value="&lt;font face=&quot;Old Standard TT&quot;&gt;send&lt;/font&gt;" style="text;html=1;strokeColor=none;fillColor=none;align=center;verticalAlign=middle;whiteSpace=wrap;rounded=0;shadow=0;fontStyle=1" vertex="1" parent="1">
          <mxGeometry x="810" y="272.5" width="40" height="20" as="geometry" />
        </mxCell>
        <mxCell id="qdngjhdqyZibX6NcExob-32" value="&lt;div style=&quot;text-align: justify&quot;&gt;&lt;span style=&quot;font-family: &amp;#34;old standard tt&amp;#34;&quot;&gt;&lt;font style=&quot;font-size: 10px&quot;&gt;4&lt;/font&gt;&lt;/span&gt;&lt;/div&gt;" style="ellipse;whiteSpace=wrap;html=1;aspect=fixed;strokeWidth=2;fontFamily=Tahoma;spacingBottom=4;spacingRight=2;rounded=1;shadow=0;align=center;strokeColor=#FFFFFF;fillColor=#000000;fontColor=#FFFFFF;" vertex="1" parent="1">
          <mxGeometry x="800" y="275" width="15" height="15" as="geometry" />
        </mxCell>
        <mxCell id="qdngjhdqyZibX6NcExob-33" value="&lt;font face=&quot;Old Standard TT&quot;&gt;run&lt;/font&gt;" style="text;html=1;strokeColor=none;fillColor=none;align=center;verticalAlign=middle;whiteSpace=wrap;rounded=0;shadow=0;fontStyle=1" vertex="1" parent="1">
          <mxGeometry x="810" y="339" width="40" height="20" as="geometry" />
        </mxCell>
        <mxCell id="qdngjhdqyZibX6NcExob-34" value="&lt;div style=&quot;text-align: justify&quot;&gt;&lt;span style=&quot;font-family: &amp;#34;old standard tt&amp;#34;&quot;&gt;&lt;font style=&quot;font-size: 10px&quot;&gt;5&lt;/font&gt;&lt;/span&gt;&lt;/div&gt;" style="ellipse;whiteSpace=wrap;html=1;aspect=fixed;strokeWidth=2;fontFamily=Tahoma;spacingBottom=4;spacingRight=2;rounded=1;shadow=0;align=center;strokeColor=#FFFFFF;fillColor=#000000;fontColor=#FFFFFF;" vertex="1" parent="1">
          <mxGeometry x="800" y="341.5" width="15" height="15" as="geometry" />
        </mxCell>
        <mxCell id="qdngjhdqyZibX6NcExob-36" value="" style="verticalLabelPosition=bottom;html=1;verticalAlign=top;align=center;strokeColor=none;shape=mxgraph.azure.git_repository;rounded=1;shadow=0;fontColor=#FFFFFF;fillColor=#FF5A08;" vertex="1" parent="1">
          <mxGeometry x="450" y="182.5" width="70" height="70" as="geometry" />
        </mxCell>
        <mxCell id="qdngjhdqyZibX6NcExob-38" value="&lt;font face=&quot;Old Standard TT&quot; style=&quot;font-size: 17px&quot;&gt;source code&lt;/font&gt;" style="text;html=1;strokeColor=none;fillColor=none;align=center;verticalAlign=middle;whiteSpace=wrap;rounded=0;shadow=0;fontStyle=1" vertex="1" parent="1">
          <mxGeometry x="640" y="207.5" width="100" height="20" as="geometry" />
        </mxCell>
        <mxCell id="qdngjhdqyZibX6NcExob-39" value="&lt;font face=&quot;Old Standard TT&quot;&gt;&lt;span style=&quot;font-size: 17px&quot;&gt;built project&lt;/span&gt;&lt;/font&gt;" style="text;html=1;strokeColor=none;fillColor=none;align=center;verticalAlign=middle;whiteSpace=wrap;rounded=0;shadow=0;fontStyle=1" vertex="1" parent="1">
          <mxGeometry x="640" y="281.5" width="100" height="20" as="geometry" />
        </mxCell>
        <mxCell id="qdngjhdqyZibX6NcExob-40" value="&lt;font face=&quot;Old Standard TT&quot;&gt;&lt;span style=&quot;font-size: 17px&quot;&gt;Jenkins&amp;nbsp;job&lt;/span&gt;&lt;/font&gt;" style="text;html=1;strokeColor=none;fillColor=none;align=center;verticalAlign=middle;whiteSpace=wrap;rounded=0;shadow=0;fontStyle=1" vertex="1" parent="1">
          <mxGeometry x="640" y="349" width="100" height="20" as="geometry" />
        </mxCell>
        <mxCell id="qdngjhdqyZibX6NcExob-41" value="&lt;font face=&quot;Old Standard TT&quot;&gt;developper&lt;/font&gt;" style="text;html=1;strokeColor=none;fillColor=none;align=center;verticalAlign=middle;whiteSpace=wrap;rounded=0;shadow=0;fontStyle=1" vertex="1" parent="1">
          <mxGeometry x="316.25" y="242.5" width="52.5" height="20" as="geometry" />
        </mxCell>
        <mxCell id="qdngjhdqyZibX6NcExob-42" value="&lt;font face=&quot;Old Standard TT&quot;&gt;git repository&lt;/font&gt;" style="text;html=1;strokeColor=none;fillColor=none;align=center;verticalAlign=middle;whiteSpace=wrap;rounded=0;shadow=0;fontStyle=1" vertex="1" parent="1">
          <mxGeometry x="458.75" y="262.5" width="52.5" height="20" as="geometry" />
        </mxCell>
        <mxCell id="qdngjhdqyZibX6NcExob-43" value="&lt;font face=&quot;Old Standard TT&quot; style=&quot;font-size: 16px&quot;&gt;Jenkins master&lt;/font&gt;" style="text;html=1;strokeColor=none;fillColor=none;align=center;verticalAlign=middle;whiteSpace=wrap;rounded=0;shadow=0;fontStyle=1" vertex="1" parent="1">
          <mxGeometry x="628.4399999999999" y="409" width="123.12" height="20" as="geometry" />
        </mxCell>
        <mxCell id="qdngjhdqyZibX6NcExob-44" value="" style="shape=image;html=1;verticalAlign=top;verticalLabelPosition=bottom;labelBackgroundColor=#ffffff;imageAspect=0;aspect=fixed;image=https://cdn4.iconfinder.com/data/icons/logos-brands-5/24/jenkins-128.png;rounded=1;shadow=0;strokeColor=#FFFFFF;strokeWidth=5;fillColor=#FF66FF;fontColor=#FFFFFF;" vertex="1" parent="1">
          <mxGeometry x="667.01" y="110" width="46" height="46" as="geometry" />
        </mxCell>
        <mxCell id="qdngjhdqyZibX6NcExob-45" value="&lt;font face=&quot;Old Standard TT&quot;&gt;production VM&lt;/font&gt;" style="text;html=1;strokeColor=none;fillColor=none;align=center;verticalAlign=middle;whiteSpace=wrap;rounded=0;shadow=0;fontStyle=1" vertex="1" parent="1">
          <mxGeometry x="913.75" y="390" width="52.5" height="20" as="geometry" />
        </mxCell>
      </root>
    </mxGraphModel>
  </diagram>
</mxfile>
